<svg width="15" height="12" viewBox="0 0 15 12" fill="none" xmlns="http://www.w3.org/2000/svg">
<path d="M14.6622 4.12989C14.776 4.0394 14.9453 4.12405 14.9453 4.26708V10.2364C14.9453 11.01 14.3177 11.6376 13.5442 11.6376H1.40112C0.627586 11.6376 0 11.01 0 10.2364V4.27C0 4.12405 0.166383 4.04232 0.283144 4.13281C0.937001 4.64071 1.80395 5.28582 4.78133 7.4488C5.39724 7.89833 6.43641 8.84408 7.47266 8.83825C8.51474 8.847 9.57434 7.88081 10.1669 7.4488C13.1443 5.28582 14.0083 4.6378 14.6622 4.12989ZM7.47266 7.90124C8.14987 7.91292 9.12481 7.04889 9.61521 6.69278C13.4887 3.88177 13.7835 3.63658 14.6768 2.93601C14.8461 2.80466 14.9453 2.60033 14.9453 2.38432V1.82971C14.9453 1.05618 14.3177 0.428589 13.5442 0.428589H1.40112C0.627586 0.428589 0 1.05618 0 1.82971V2.38432C0 2.60033 0.0992462 2.80174 0.268549 2.93601C1.16176 3.63366 1.45658 3.88177 5.33011 6.69278C5.8205 7.04889 6.79545 7.91292 7.47266 7.90124Z" fill="#FF0600"/>
</svg>
