<svg width="30" height="30" viewBox="0 0 30 30" fill="none" xmlns="http://www.w3.org/2000/svg">
<path d="M12.9999 11.4204C12.9999 10.8003 13.2643 10.3699 13.7931 10.1292C14.3211 9.88754 14.7899 9.98492 15.1997 10.4213L18.564 14.0043C18.6934 14.1422 18.7904 14.2914 18.8551 14.4522C18.9198 14.613 18.9521 14.7853 18.9521 14.969C18.9521 15.1528 18.9198 15.325 18.8551 15.4858C18.7904 15.6466 18.6934 15.7959 18.564 15.9337L15.1997 19.5167C14.7899 19.9531 14.3211 20.0505 13.7931 19.8089C13.2643 19.5681 12.9999 19.1377 12.9999 18.5176V11.4204Z" fill="#FF0600"/>
<path d="M26.5162 14.9955C26.5162 21.3522 21.3612 26.5071 15 26.5071C8.63878 26.5071 3.4838 21.3522 3.4838 14.9955C3.4838 8.63874 8.63878 3.4838 15 3.4838C21.3612 3.4838 26.5162 8.63874 26.5162 14.9955Z" stroke="url(#paint0_radial_726_519)" stroke-width="6.96759"/>
<defs>
<radialGradient id="paint0_radial_726_519" cx="0" cy="0" r="1" gradientUnits="userSpaceOnUse" gradientTransform="translate(14.5781 15.6515) rotate(88.7893) scale(19.9672 19.9732)">
<stop offset="0.6" stop-color="#FF0600"/>
<stop offset="1" stop-color="#000000"/>
</radialGradient>
</defs>
</svg>
