<svg width="15" height="17" viewBox="0 0 15 17" fill="none" xmlns="http://www.w3.org/2000/svg">
<path d="M7.47266 8.21429C9.74121 8.21429 11.5798 6.3757 11.5798 4.10714C11.5798 1.83859 9.74121 0 7.47266 0C5.2041 0 3.36551 1.83859 3.36551 4.10714C3.36551 6.3757 5.2041 8.21429 7.47266 8.21429ZM10.3477 9.24107H9.8118C9.09947 9.56836 8.30692 9.75446 7.47266 9.75446C6.63839 9.75446 5.84905 9.56836 5.13351 9.24107H4.59766C2.2168 9.24107 0.285156 11.1727 0.285156 13.5536V14.8884C0.285156 15.7387 0.975028 16.4286 1.82533 16.4286H13.12C13.9703 16.4286 14.6602 15.7387 14.6602 14.8884V13.5536C14.6602 11.1727 12.7285 9.24107 10.3477 9.24107Z" fill="#FF0600"/>
</svg>
